<?xml version="1.0" encoding="utf-8"?>
<!-- Generator: Adobe Illustrator 27.5.0, SVG Export Plug-In . SVG Version: 6.00 Build 0)  -->
<svg version="1.1" xmlns="http://www.w3.org/2000/svg" xmlns:xlink="http://www.w3.org/1999/xlink" x="0px" y="0px"
	 viewBox="0 0 500 500" style="enable-background:new 0 0 500 500;" xml:space="preserve">
<g id="Background_Simple">
	<g>
		<path style="fill:#C6FF00;" d="M221.937,457.964c0,0,79.98,12.842,142.739-43.377c62.759-56.219,80.001-147.618,95.922-221.23
			c15.922-73.612-17.92-139.071-80.451-160.055c-62.532-20.984-89.573,32.385-166.699,49.25
			c-77.126,16.865-100.594,9.493-154.801,66.276C4.442,205.612,16.933,313.275,85.615,381.751
			C154.298,450.227,221.937,457.964,221.937,457.964z"/>
		<path style="opacity:0.7;fill:#FFFFFF;" d="M221.937,457.964c0,0,79.98,12.842,142.739-43.377
			c62.759-56.219,80.001-147.618,95.922-221.23c15.922-73.612-17.92-139.071-80.451-160.055
			c-62.532-20.984-89.573,32.385-166.699,49.25c-77.126,16.865-100.594,9.493-154.801,66.276
			C4.442,205.612,16.933,313.275,85.615,381.751C154.298,450.227,221.937,457.964,221.937,457.964z"/>
	</g>
</g>
<g id="Clock">
	<g>
		
			<circle style="fill:none;stroke:#263238;stroke-linecap:round;stroke-linejoin:round;stroke-miterlimit:10;" cx="368.602" cy="117.714" r="34.869"/>
		
			<circle style="fill:none;stroke:#263238;stroke-linecap:round;stroke-linejoin:round;stroke-miterlimit:10;" cx="368.601" cy="117.714" r="27.849"/>
		
			<circle style="fill:none;stroke:#263238;stroke-linecap:round;stroke-linejoin:round;stroke-miterlimit:10;" cx="368.601" cy="117.714" r="27.849"/>
		
			<polyline style="fill:none;stroke:#263238;stroke-width:2;stroke-linecap:round;stroke-linejoin:round;stroke-miterlimit:10;" points="
			358.713,110.993 368.602,117.714 392.919,117.714 		"/>
		<path style="fill:#FFFFFF;stroke:#263238;stroke-linecap:round;stroke-linejoin:round;stroke-miterlimit:10;" d="M371.299,117.714
			c0,1.49-1.207,2.697-2.697,2.697c-1.49,0-2.697-1.208-2.697-2.697c0-1.49,1.208-2.697,2.697-2.697
			C370.091,115.017,371.299,116.224,371.299,117.714z"/>
	</g>
</g>
<g id="Character">
	<g>
		<g>
			<g>
				<path style="fill:#FFFFFF;stroke:#263238;stroke-linecap:round;stroke-linejoin:round;stroke-miterlimit:10;" d="
					M315.945,407.042c0,0,4.329,6.04,5.772,9.815c1.443,3.775-0.721,6.417-6.854,9.06c-6.133,2.642-10.101,2.265-15.512,3.02
					c-5.411,0.755-7.936,5.285-15.872,6.795c-7.936,1.51-14.429,0.378-14.069-2.265c0.361-2.643,10.461-5.663,15.151-11.325
					c4.689-5.662,13.347-15.477,13.347-15.477L315.945,407.042z"/>
				<path style="fill:#9E9E9E;stroke:#263238;stroke-linecap:round;stroke-linejoin:round;stroke-miterlimit:10;" d="
					M315.945,407.042l-4.011-0.084l-2.257,2.418c0,0-0.37,0.719-0.83,1.915c-1.323,3.439-3.378,10.818,0.426,16.421
					c1.711-0.364,3.526-0.906,5.59-1.795c6.132-2.642,8.297-5.285,6.854-9.06C320.274,413.082,315.945,407.042,315.945,407.042z"/>
			</g>
			<path style="fill:#4F4F4F;stroke:#263238;stroke-linecap:round;stroke-linejoin:round;stroke-miterlimit:10;" d="
				M284.502,329.586c0,0,9.683,22.852,10.845,34.472c1.162,11.62,21.303,39.12,22.465,41.057c1.162,1.937-0.775,5.035-3.486,5.81
				c-2.711,0.775-8.134,5.035-15.106,1.549c-6.972-3.486-12.007-17.43-27.5-37.183c-15.493-19.754-29.437-36.796-28.662-46.092
				c0.775-9.296,11.232-9.683,20.528-8.521C272.882,321.84,284.502,329.586,284.502,329.586z"/>
			<g>
				<path style="fill:#FFFFFF;stroke:#263238;stroke-linecap:round;stroke-linejoin:round;stroke-miterlimit:10;" d="
					M274.818,415.96c0,0-9.683,10.07-13.169,11.62c-3.486,1.549-18.592,6.585-18.592,9.296c0,2.711,14.331,4.648,20.141,4.648
					s17.042-4.261,20.528-5.423c3.486-1.162,15.106-3.099,19.366-6.197c4.261-3.099-2.711-15.493-2.711-15.493L274.818,415.96z"/>
				<g>
					<path style="fill:#9E9E9E;stroke:#263238;stroke-linecap:round;stroke-linejoin:round;stroke-miterlimit:10;" d="
						M258.396,441.257c-0.246-1.812-0.886-4.764-2.557-7.867c-0.588-1.092-1.23-2.011-1.876-2.794
						c-5.205,2.073-10.906,4.615-10.906,6.28C243.058,438.993,251.8,440.638,258.396,441.257z"/>
					<path style="fill:#9E9E9E;stroke:#263238;stroke-linecap:round;stroke-linejoin:round;stroke-miterlimit:10;" d="
						M293.734,414.814c-0.644,1.388-1.176,2.929-1.485,4.632c-0.883,4.856-0.256,10.464,0.446,14.392
						c4.006-1.036,8.19-2.327,10.399-3.934c4.261-3.099-2.711-15.493-2.711-15.493L293.734,414.814z"/>
				</g>
			</g>
			<path style="fill:#6B6B6B;stroke:#263238;stroke-linecap:round;stroke-linejoin:round;stroke-miterlimit:10;" d="
				M221.359,324.234c0,0,0.248,8.135,7.755,19.684c7.506,11.548,43.058,61.154,43.058,61.154s0,8.661,0.577,10.393
				c0.577,1.732,27.716,6.352,29.448,1.155c1.732-5.197-6.929-16.168-6.929-16.168l-25.983-72.754c0,0-8.084-16.168-19.632-17.9
				C238.104,308.066,221.359,316.728,221.359,324.234z"/>
		</g>
		<g>
			<g>
				<path style="fill:#263238;stroke:#263238;stroke-linecap:round;stroke-linejoin:round;stroke-miterlimit:10;" d="
					M440.313,147.58l-28.44,0.34c0,0-2.722-0.34-3.403,1.702c0,0-7.146,18.035-7.486,24.5c-0.34,6.466,1.361,5.445-1.361,13.952
					c-2.722,8.507-10.549,28.584-14.973,44.919c-5.946,21.953-7.495,45.253-7.872,67.912c-0.061,3.636-2.234,34.923,3.425,34.923
					c4.697,0,35.283,5.741,35.805-2.61c2.08-33.287-3.931-65.812,7.631-98.186c4.49-12.572,9.64-25.851,13.449-39.004
					c3.825-13.208,4.476-26.822,6.967-40.281C445.758,146.559,440.313,147.58,440.313,147.58z"/>
				<path style="fill:#828282;stroke:#263238;stroke-linecap:round;stroke-linejoin:round;stroke-miterlimit:10;" d="
					M440.313,147.58l-28.44,0.34c0,0-2.722-0.34-3.403,1.701c0,0-5.94,14.994-7.245,22.539c-0.517,1.945-1.356,5.943-0.904,10.168
					c0.634,5.914,2.323,11.194,10.772,13.306c7.32,1.83,16.373,0.324,19.763-4.505c3.516-2.622,2.855-7.331,5.033-11.904
					c3.403-7.146,4.764-18.716,7.486-25.521c0.273-0.683,0.611-1.366,0.97-2.048C443.94,146.905,440.313,147.58,440.313,147.58z"/>
				<path style="fill:#696969;stroke:#263238;stroke-linecap:round;stroke-linejoin:round;stroke-miterlimit:10;" d="
					M434.801,164.948c-2.762,9.941-1.105,12.702-3.866,29.823c-2.762,17.121-12.702,36.45-16.568,54.123
					c-3.866,17.673-2.209,80.08-1.657,82.841c0.21,1.052,0.26,2.744,0.241,4.437c1.854-0.692,2.977-1.651,3.058-2.953
					c2.08-33.287-3.931-65.812,7.631-98.187c4.49-12.572,9.64-25.851,13.449-39.004c3.825-13.208,4.476-26.822,6.967-40.281
					c1.045-5.645-0.606-7.431-2.036-7.973l-0.04,0.054C441.98,147.828,437.562,155.007,434.801,164.948z"/>
			</g>
			<g>
				<path style="fill:#263238;stroke:#263238;stroke-linecap:round;stroke-linejoin:round;stroke-miterlimit:10;" d="
					M348.588,419.895l-0.303-0.242v-42.212h6.065v-26.686h-22.44v26.686h6.065v42.937L284.3,437.483v4.246
					c0,2.68,2.172,4.852,4.852,4.852c2.68,0,4.852-2.172,4.852-4.852v-0.607l44.88-5.219v6.431c0,2.345,1.901,4.246,4.245,4.246
					c2.345,0,4.245-1.901,4.245-4.246v-6.643l46.7,5.43v0.607c0,2.68,2.172,4.852,4.852,4.852c2.68,0,4.852-2.172,4.852-4.852
					v-4.246L348.588,419.895z"/>
				<polygon style="fill:#FFFFFF;stroke:#263238;stroke-linecap:round;stroke-linejoin:round;stroke-miterlimit:10;" points="
					348.285,419.652 348.285,377.667 337.974,377.667 337.974,419.667 348.303,419.667 				"/>
				<path style="fill:#263238;stroke:#263238;stroke-linecap:round;stroke-linejoin:round;stroke-miterlimit:10;" d="
					M414.725,355.671H277.138c-2.209,0-4-1.791-4-4v-15.354c0-2.209,1.791-4,4-4h137.587c2.209,0,4,1.791,4,4v15.354
					C418.725,353.88,416.934,355.671,414.725,355.671z"/>
			</g>
		</g>
		<g>
			<path style="fill:#FFFFFF;stroke:#263238;stroke-linecap:round;stroke-linejoin:round;stroke-miterlimit:10;" d="
				M279.492,199.887c0,0,8.191,2.574,10.999,3.51c2.808,0.936,12.169,10.297,12.169,10.297s11.233-28.083,12.169-30.657
				c0.936-2.574,1.404-4.213,1.404-4.213s-4.447,1.872-8.425-2.34c-3.979-4.212,1.17-12.637-3.51-19.892
				c-4.681-7.255-33.466,8.191-34.168,15.68C269.429,179.76,272.705,195.674,279.492,199.887z"/>
			<g>
				<path style="fill:#FFFFFF;stroke:#263238;stroke-linecap:round;stroke-linejoin:round;stroke-miterlimit:10;" d="
					M255.387,156.826c0,0,0.468,6.319,2.106,8.893c1.638,2.574,3.276,7.255,2.106,9.361c-1.17,2.106-5.382,4.447-4.68,6.787
					c0.702,2.34,6.319,3.276,6.319,3.276l1.404,3.276c0,0,4.446-2.574,8.425-1.404c3.978,1.17,11.233-0.234,12.871-4.447
					c1.638-4.212,1.872-19.658,0.468-30.189c-1.404-10.531-6.085-15.446-14.51-13.339S254.919,150.975,255.387,156.826z"/>
				<path style="fill:none;stroke:#263238;stroke-width:2;stroke-linecap:round;stroke-linejoin:round;stroke-miterlimit:10;" d="
					M262.361,168.544c0,0,0.047-6.101,4.493-6.803"/>
				<path style="fill:#263238;" d="M266.775,170.211c0.514,1.326,0.442,2.59-0.161,2.823c-0.603,0.234-1.507-0.652-2.021-1.978
					s-0.442-2.59,0.161-2.823C265.357,168,266.262,168.885,266.775,170.211z"/>
				<g>
					<path style="fill:none;stroke:#263238;stroke-linecap:round;stroke-linejoin:round;stroke-miterlimit:10;" d="M274.059,158.015
						c0,0,2.106,2.34-1.404,3.275"/>
					<path style="fill:none;stroke:#263238;stroke-linecap:round;stroke-linejoin:round;stroke-miterlimit:10;" d="M276.867,158.015
						c0,0-0.702,3.51,2.106,3.51"/>
					<path style="fill:none;stroke:#263238;stroke-linecap:round;stroke-linejoin:round;stroke-miterlimit:10;" d="M273.123,163.162
						c0,0,2.34-1.872,2.106,1.17"/>
					<path style="fill:none;stroke:#263238;stroke-linecap:round;stroke-linejoin:round;stroke-miterlimit:10;" d="M279.207,163.396
						c0,0-2.34-0.234-2.34,0.702"/>
				</g>
				<path style="fill:#263238;stroke:#263238;stroke-linecap:round;stroke-linejoin:round;stroke-miterlimit:10;" d="
					M283.046,123.857c-5.284,1.024-10.345,2.807-14.319,4.652c-7.99,3.71-12.403,9.595-19.424,9.361
					c-7.021-0.234-9.361,2.574-5.617,7.255c3.744,4.681,10.063,4.213,10.063,4.213s-5.617,5.383-4.68,8.893
					c0.936,3.51,4.915,2.808,7.723-0.936s5.149-8.893,11.701-10.297c6.553-1.404,8.659-1.404,8.659-1.404s-7.489,5.851-6.553,8.191
					c0.936,2.34,7.255,2.106,10.063,4.914s0.468,21.998-1.872,24.573c-2.34,2.574-5.617,1.638-9.595,1.404
					c-3.979-0.234-7.489,0.702-6.553,3.744c0.936,3.042,4.461,18.052,7.269,18.988c2.808,0.936,13.651,0.7,24.851-14.001
					c3.149-4.133-2.399-19.497-2.399-22.774c0-3.253-0.288-6.714,0.506-9.901c0.467-1.875,2.119-3.709,4.167-3.735
					c2.83-0.035,3.703,2.702,4.22,4.978c1.17,5.149-2.574,9.595-1.872,10.297c0.702,0.702,5.383,4.914,9.361,6.319
					c3.978,1.404,4.68-8.893,6.553-16.85c1.872-7.957,1.872-23.402-7.49-32.999C301.787,122.571,292.089,122.104,283.046,123.857z"
					/>
				<path style="fill:#FFFFFF;" d="M271.805,190.875c0.626,1.617,0.246,3.271-0.848,3.695c-1.095,0.424-2.49-0.542-3.117-2.159
					c-0.626-1.617-0.247-3.271,0.848-3.695C269.783,188.292,271.178,189.258,271.805,190.875z"/>
			</g>
		</g>
		<g>
			
				<ellipse transform="matrix(0.7071 -0.7071 0.7071 0.7071 -31.563 258.2804)" style="fill:#FFFFFF;stroke:#263238;stroke-linecap:round;stroke-linejoin:round;stroke-miterlimit:10;" cx="295.991" cy="167.24" rx="12.754" ry="12.754"/>
			<path style="fill:#C6FF00;stroke:#263238;stroke-linecap:round;stroke-linejoin:round;stroke-miterlimit:10;" d="
				M293.065,161.507l-4.96-38.681c-0.102-0.848,0.539-1.603,1.392-1.64l7.638-0.332c0.84-0.036,1.539,0.64,1.53,1.481l-0.451,38.938
				L293.065,161.507z"/>
			
				<circle style="fill:#C6FF00;stroke:#263238;stroke-linecap:round;stroke-linejoin:round;stroke-miterlimit:10;" cx="295.99" cy="167.24" r="7.84"/>
		</g>
		<g>
			<path style="fill:#263238;stroke:#263238;stroke-linecap:round;stroke-linejoin:round;stroke-miterlimit:10;" d="
				M220.521,282.185h-25.702v-2.756c0-4.786,3.88-8.667,8.667-8.667h8.368c4.786,0,8.667,3.88,8.667,8.667V282.185z"/>
			<path style="fill:#FFFFFF;stroke:#263238;stroke-linecap:round;stroke-linejoin:round;stroke-miterlimit:10;" d="
				M285.252,250.869c0,0-49.182,14.596-52.673,14.596s-13.327,0.317-19.673-0.952c-6.346-1.269-11.106-2.221-13.644,0.317
				c-2.538,2.538-4.442,11.106-4.442,11.106s1.269,0.317,3.808-0.635c2.538-0.952,4.125-6.664,4.125-6.664s6.663-0.635,9.519,2.221
				c2.856,2.856,2.538,3.173,0.635,5.077c-1.904,1.904-7.615,2.221-8.885,4.442c-1.269,2.221,3.173,1.586,5.077,1.269
				c1.904-0.317,6.981-0.635,10.154-2.221c3.173-1.587,9.519-4.125,11.106-4.442c1.587-0.317,32.683-1.587,42.519-1.587
				c9.837,0,22.529-2.538,28.875-4.442c6.346-1.904,9.837-5.077,9.837-5.077S289.377,250.869,285.252,250.869z"/>
			<g>
				<path style="fill:none;stroke:#263238;stroke-linecap:round;stroke-linejoin:round;stroke-miterlimit:10;" d="M195.665,262.496
					c0,0,4.696-3.652,9.392-3.652"/>
				<path style="fill:none;stroke:#263238;stroke-linecap:round;stroke-linejoin:round;stroke-miterlimit:10;" d="M194.621,259.365
					c0,0,3.652-3.652,9.914-4.174"/>
			</g>
			<path style="fill:#C6FF00;stroke:#263238;stroke-linecap:round;stroke-linejoin:round;stroke-miterlimit:10;" d="
				M309.367,218.821l-12.375,25.385c0,0-3.173-0.635-3.808,1.269c-0.635,1.904-2.221,3.173-2.221,3.173l-5.712,2.221
				c0,0,5.394,4.125,12.375,10.154c6.981,6.029,12.058,6.981,12.058,6.981s12.692-11.74,14.596-24.75
				C326.184,230.244,314.761,213.11,309.367,218.821z"/>
		</g>
		<g>
			<path style="fill:#6B6B6B;stroke:#263238;stroke-linecap:round;stroke-linejoin:round;stroke-miterlimit:10;" d="
				M223.092,329.431c-4.619-8.661-3.465-21.364,28.87-27.138c32.335-5.774,53.842-4.854,53.842-4.854l5.81-7.359
				c0,0,70.265,8.171,71.42,9.904c1.155,1.732-0.634,14.966-1.732,21.942c-1.099,6.975-2.153,12.909-10.814,15.796
				c-8.661,2.887-47.504,2.104-67.714-0.206c-20.209-2.31-51.967-9.239-51.967-9.239"/>
			<path style="fill:none;stroke:#263238;stroke-linecap:round;stroke-linejoin:round;stroke-miterlimit:10;" d="M242.743,340.05
				c2.096,2.586,3.924,4.283,3.924,4.283"/>
			<path style="fill:none;stroke:#263238;stroke-linecap:round;stroke-linejoin:round;stroke-miterlimit:10;" d="M334.21,321.014
				C311.132,320.616,265.113,321,256,321c-12,0-20-1.333-19.333,6.667c0.183,2.194,1.017,4.438,2.132,6.539"/>
			<path style="fill:none;stroke:#263238;stroke-linecap:round;stroke-linejoin:round;stroke-miterlimit:10;" d="M372.667,306.333
				c0,0-2.667,4-2,6c0.667,2,8,4,3.333,6.667c-4.667,2.667-11.333,0-11.333,3.333c0,3.333,3.333,6.667-1.333,6.667
				c-4.667,0-10.667-6-14-7.333c-0.514-0.206-2.76-0.364-6.234-0.484"/>
			<path style="fill:none;stroke:#263238;stroke-linecap:round;stroke-linejoin:round;stroke-miterlimit:10;" d="M310.84,298.6
				c0,0,27.887,6.197,41.057,17.43"/>
			<path style="fill:none;stroke:#263238;stroke-linecap:round;stroke-linejoin:round;stroke-miterlimit:10;" d="M317.812,299.375
				c0,0,35.247,5.81,49.578,19.754"/>
		</g>
		<g>
			<g>
				<path style="fill:#FFFFFF;stroke:#263238;stroke-linecap:round;stroke-linejoin:round;stroke-miterlimit:10;" d="
					M314.256,177.863c0,0-11.423,26.971-14.596,41.884c-3.173,14.913,2.856,21.894,5.394,29.192
					c2.539,7.298,10.789,26.019,10.789,26.019s-6.346,8.25-6.981,13.327s0.952,4.442,22.846,10.788
					c21.894,6.346,41.567,5.712,46.009,5.394c4.442-0.317,6.981-3.808,7.933-6.346c0.952-2.538,1.269-27.923-2.221-47.279
					c-3.49-19.356-16.817-47.596-35.856-60.923S317.112,175.642,314.256,177.863z"/>
				<path style="fill:#C6FF00;stroke:#263238;stroke-linecap:round;stroke-linejoin:round;stroke-miterlimit:10;" d="
					M314.256,177.863c0,0-11.423,26.971-14.596,41.884c-1.915,9-0.474,15.104,1.524,20.139l21.07-62.471
					C318.142,176.566,315.449,176.936,314.256,177.863z"/>
			</g>
			<path style="fill:none;stroke:#263238;stroke-linecap:round;stroke-linejoin:round;stroke-miterlimit:10;" d="M366.744,233.282
				c1.207,0.161,2.423,0.231,3.641,0.19"/>
			<path style="fill:none;stroke:#263238;stroke-linecap:round;stroke-linejoin:round;stroke-miterlimit:10;" d="M342.031,219.295
				c0,0,8.947,9.307,19.8,12.845"/>
			<path style="fill:none;stroke:#263238;stroke-linecap:round;stroke-linejoin:round;stroke-miterlimit:10;" d="M346.285,232.999
				c0,0,10.397,13.704,24.574,16.067"/>
			<path style="fill:none;stroke:#263238;stroke-linecap:round;stroke-linejoin:round;stroke-miterlimit:10;" d="M338.723,215.514
				c0,0,8.506,3.781,18.903,1.89"/>
			<path style="fill:none;stroke:#263238;stroke-linecap:round;stroke-linejoin:round;stroke-miterlimit:10;" d="M356.896,279.708
				c1.712,1.434,3.388,3.029,4.983,4.801"/>
			<path style="fill:none;stroke:#263238;stroke-linecap:round;stroke-linejoin:round;stroke-miterlimit:10;" d="M331.162,267.497
				c0,0,11.547,1.823,22.701,9.856"/>
		</g>
		<g>
			<g>
				<path style="fill:#FFFFFF;stroke:#263238;stroke-linecap:round;stroke-linejoin:round;stroke-miterlimit:10;" d="
					M315.059,249.876c0,0-12.301,4.813-25.402,6.411c-13.101,1.598-35.71,2.743-36.978,2.682
					c-1.268-0.061-16.495-7.141-16.495-7.141s-6.716-5.721-9.568-5.857c-2.852-0.136-10.188,0.467-10.882,1.704
					c-0.694,1.238,2.445,2.023,2.445,2.023s5.071,0.242,6.973,0.333c1.902,0.091,6.082,5.691,6.082,5.691s-6.927-1.284-9.463-1.405
					c-2.536-0.121-8.12,3.742-8.166,4.693c-0.045,0.951,1.524,1.343,3.109,1.419c1.585,0.076,6.143-2.248,6.143-2.248l7.501,2.582
					c0,0-7.139,3.154-8.211,5.644c-1.072,2.49-2.174,5.614-2.174,5.614s0.241,1.6,2.822,0.77c2.581-0.83,3.728-4.905,3.728-4.905
					l7.728-2.172c0,0-5.243,3.115-5.635,4.684c-0.393,1.57-1.505,5.14-0.237,5.201c1.268,0.06,4.664-4.542,4.664-4.542l5.796-1.629
					c0,0,5.388,0.257,7.924,0.378c2.536,0.121,5.735-0.362,5.735-0.362s24.872,4.682,49.277,5.847
					c24.405,1.165,33.823-3.15,40.419-8.236c6.596-5.086-7.756-17.207-13.144-17.464
					C323.662,249.334,315.059,249.876,315.059,249.876z"/>
				<g>
					<path style="fill:#C6FF00;stroke:#263238;stroke-linecap:round;stroke-linejoin:round;stroke-miterlimit:10;" d="
						M320.695,191.695c0,0-8.272,6.911-8.816,18.322c-0.545,11.41,4.72,34.216,4.72,34.216l-0.815,3.773l-3.924,2.354
						c0,0,3.199,6.188,15.001,11.835c11.802,5.646,22.17,8.047,24.132,6.87c1.962-1.177-0.949-13.387-0.54-28.616
						c0.409-15.229-2.668-30.624-5.444-39.015c-2.776-8.392-14.337-12.438-17.838-12.288"/>
					<path style="fill:none;stroke:#263238;stroke-linecap:round;stroke-linejoin:round;stroke-miterlimit:10;" d="M315.783,248.005
						c0,0,9.447,8.393,17.023,9.39"/>
				</g>
			</g>
			
				<line style="fill:none;stroke:#263238;stroke-linecap:round;stroke-linejoin:round;stroke-miterlimit:10;" x1="231.668" y1="243.712" x2="243.147" y2="249.973"/>
			
				<line style="fill:none;stroke:#263238;stroke-linecap:round;stroke-linejoin:round;stroke-miterlimit:10;" x1="234.799" y1="241.103" x2="245.234" y2="246.842"/>
		</g>
	</g>
	<g>
		<path style="fill:#263238;stroke:#263238;stroke-miterlimit:10;" d="M203.262,108.001h61.102c3.261,0,5.904-2.643,5.904-5.904
			V84.384c0-3.261-2.643-5.904-5.904-5.904h-61.102c-3.261,0-5.904,2.643-5.904,5.904v17.713
			C197.358,105.357,200.001,108.001,203.262,108.001z"/>
		<g>
			<circle style="fill:#C6FF00;" cx="214.669" cy="92.818" r="8.154"/>
			<g>
				<path style="fill:#263238;stroke:#263238;stroke-miterlimit:10;" d="M220.539,91.61c0-1.7-1.378-3.078-3.078-3.078
					c-1.238,0-2.304,0.731-2.793,1.785c-0.489-1.054-1.555-1.785-2.793-1.785c-1.7,0-3.078,1.378-3.078,3.078
					c0,0.552,0.146,1.069,0.4,1.517c1.321,2.782,5.477,5.841,5.477,5.841s4.144-3.06,5.466-5.841
					C220.394,92.679,220.539,92.162,220.539,91.61z"/>
				<path style="fill:#C6FF00;" d="M211.549,89.349c0.101,0.418-0.182,0.846-0.633,0.954c-0.45,0.109-0.898-0.142-0.999-0.56
					c-0.101-0.418,0.182-0.846,0.633-0.954C211.001,88.679,211.448,88.93,211.549,89.349z"/>
				<path style="fill:#C6FF00;" d="M216.967,89.349c0.101,0.418-0.182,0.846-0.633,0.954c-0.451,0.109-0.898-0.142-0.999-0.56
					c-0.101-0.418,0.182-0.846,0.633-0.954C216.419,88.679,216.866,88.93,216.967,89.349z"/>
			</g>
			<circle style="fill:#808080;" cx="252.85" cy="92.818" r="8.154"/>
			<polygon style="fill:#263238;" points="259.138,87.398 257.699,86.009 252.617,91.279 247.535,86.009 246.095,87.398 
				251.228,92.72 246.095,98.043 247.535,99.431 252.617,94.161 257.699,99.431 259.138,98.043 254.006,92.72 			"/>
			<circle style="fill:#808080;" cx="233.872" cy="92.818" r="8.154"/>
			<polygon style="fill:#263238;" points="240.16,87.398 238.72,86.009 233.638,91.279 228.556,86.009 227.117,87.398 
				232.249,92.72 227.117,98.043 228.556,99.431 233.638,94.161 238.72,99.431 240.16,98.043 235.028,92.72 			"/>
		</g>
		<polyline style="fill:#263238;" points="245.221,107.868 249.721,114.368 244.221,115.368 251.221,126.868 238.721,113.868 
			240.721,111.868 235.221,105.868 		"/>
	</g>
</g>
<g id="Device">
	<g>
		<g>
			<path style="fill:#828282;stroke:#263238;stroke-linecap:round;stroke-linejoin:round;stroke-miterlimit:10;" d="
				M131.419,287.192h46.313c1.851,0,3.35-1.5,3.35-3.35c0-1.851-1.5-3.351-3.35-3.351h-46.313c-2.225,0-4.363-0.945-5.861-2.591
				c-1.843-2.029-2.505-4.816-1.767-7.455l16.43-58.877c0.498-1.782-0.544-3.631-2.327-4.128c-1.775-0.5-3.63,0.544-4.128,2.327
				l-16.431,58.877c-1.358,4.874-0.138,10.017,3.264,13.763C123.368,285.449,127.309,287.192,131.419,287.192z"/>
		</g>
		<g>
			
				<rect x="145.252" y="133.021" transform="matrix(-0.9929 0.119 -0.119 -0.9929 323.9506 383.2399)" style="fill:#FFFFFF;stroke:#263238;stroke-linecap:round;stroke-linejoin:round;stroke-miterlimit:10;" width="10.561" height="136.543"/>
			
				<line style="fill:none;stroke:#263238;stroke-linecap:round;stroke-linejoin:round;stroke-miterlimit:10;" x1="154.667" y1="130.333" x2="186" y2="117"/>
			
				<line style="fill:none;stroke:#263238;stroke-linecap:round;stroke-linejoin:round;stroke-miterlimit:10;" x1="167.333" y1="267" x2="188.667" y2="274.333"/>
			<path style="fill:#263238;stroke:#263238;stroke-linecap:round;stroke-linejoin:round;stroke-miterlimit:10;" d="
				M137.161,134.135c0,0-18.622,66.47,16.255,135.572L137.161,134.135z"/>
		</g>
	</g>
	<g>
		
			<rect x="206.542" y="275.6" style="fill:#FFFFFF;stroke:#263238;stroke-linecap:round;stroke-linejoin:round;stroke-miterlimit:10;" width="6.139" height="2.631"/>
		
			<rect x="214.435" y="275.6" style="fill:#FFFFFF;stroke:#263238;stroke-linecap:round;stroke-linejoin:round;stroke-miterlimit:10;" width="6.139" height="2.631"/>
		
			<rect x="222.328" y="275.6" style="fill:#FFFFFF;stroke:#263238;stroke-linecap:round;stroke-linejoin:round;stroke-miterlimit:10;" width="6.139" height="2.631"/>
		
			<rect x="230.221" y="275.6" style="fill:#FFFFFF;stroke:#263238;stroke-linecap:round;stroke-linejoin:round;stroke-miterlimit:10;" width="6.139" height="2.631"/>
		
			<rect x="238.115" y="275.6" style="fill:#FFFFFF;stroke:#263238;stroke-linecap:round;stroke-linejoin:round;stroke-miterlimit:10;" width="6.139" height="2.631"/>
		
			<rect x="246.008" y="275.6" style="fill:#FFFFFF;stroke:#263238;stroke-linecap:round;stroke-linejoin:round;stroke-miterlimit:10;" width="6.139" height="2.631"/>
		
			<rect x="253.901" y="275.6" style="fill:#FFFFFF;stroke:#263238;stroke-linecap:round;stroke-linejoin:round;stroke-miterlimit:10;" width="6.139" height="2.631"/>
		
			<rect x="261.794" y="275.6" style="fill:#FFFFFF;stroke:#263238;stroke-linecap:round;stroke-linejoin:round;stroke-miterlimit:10;" width="6.139" height="2.631"/>
		
			<rect x="203.033" y="277.62" style="fill:#FFFFFF;stroke:#263238;stroke-linecap:round;stroke-linejoin:round;stroke-miterlimit:10;" width="72.678" height="4.993"/>
	</g>
</g>
<g id="Table">
	<g>
		<polygon style="fill:#FFFFFF;stroke:#263238;stroke-linecap:round;stroke-linejoin:round;stroke-miterlimit:10;" points="
			95.267,447.667 88.067,447.667 86.667,300.333 96.667,300.333 		"/>
		<polygon style="fill:#FFFFFF;stroke:#263238;stroke-linecap:round;stroke-linejoin:round;stroke-miterlimit:10;" points="
			289.933,447.667 282.733,447.667 281.333,300.333 291.333,300.333 		"/>
		<g>
			
				<rect id="XMLID_4_" x="82.672" y="286.862" style="fill:#263238;stroke:#263238;stroke-linecap:round;stroke-linejoin:round;stroke-miterlimit:10;" width="212.831" height="24.759"/>
			<rect x="82.89" y="293.195" style="fill:#263238;" width="212.253" height="7.299"/>
			
				<rect x="72.452" y="282.537" style="fill:#FFFFFF;stroke:#263238;stroke-linecap:round;stroke-linejoin:round;stroke-miterlimit:10;" width="226.458" height="11.533"/>
		</g>
	</g>
</g>
<g id="Plants">
	<g>
		<path style="fill:#C6FF00;" d="M112.726,399.455c0,0-21.047-33.803-22.961-54.213c-1.913-20.409,13.394-7.654,13.394-7.654
			s-21.685-77.811-4.465-82.913c17.22-5.102,27.425,89.291,27.425,89.291s12.118-32.528,17.858-22.323
			c5.74,10.205-7.016,64.417-7.016,64.417s14.031-16.583,15.307-6.378c1.276,10.205-13.394,31.89-13.394,31.89"/>
		<polygon style="fill:#263238;" points="152.269,394.353 100.607,394.353 107.065,447.29 145.811,447.29 		"/>
		<path style="fill:none;stroke:#263238;stroke-miterlimit:10;" d="M140.789,401.369c0,0,11.48-17.858,10.842-29.976
			s-9.567,8.291-9.567,8.291s7.653-40.819-1.276-48.472c-8.929-7.654-10.842,36.992-10.842,36.992s-19.772-87.378-30.614-68.244
			c-10.843,19.134,14.669,66.969,14.669,66.969s-8.291-15.945-9.567-0.638c-1.276,15.307,5.102,35.717,5.102,35.717"/>
	</g>
</g>
<g id="Floor">
	<g>
		
			<line style="fill:none;stroke:#263238;stroke-linecap:round;stroke-linejoin:round;stroke-miterlimit:10;" x1="449" y1="447.667" x2="454.333" y2="447.667"/>
		
			<line style="fill:none;stroke:#263238;stroke-linecap:round;stroke-linejoin:round;stroke-miterlimit:10;" x1="39.667" y1="447.667" x2="437" y2="447.667"/>
	</g>
</g>
</svg>
